<svg width="640" height="640" viewBox="0 0 640 640" fill="none" xmlns="http://www.w3.org/2000/svg">
<rect width="640" height="640" rx="64" fill="#0B0D0F"/>
<path fill-rule="evenodd" clip-rule="evenodd" d="M496.819 101.329C488.217 97.8908 478.829 96 469 96H171C129.579 96 96 129.579 96 171V469C96 510.421 129.579 544 171 544H469C510.421 544 544 510.421 544 469V171C544 161.484 542.228 152.381 538.995 144.005L504 179V469C504 488.33 488.33 504 469 504H171C151.67 504 136 488.33 136 469V171C136 151.67 151.67 136 171 136H462.147L496.819 101.329Z" fill="white"/>
<rect x="330" y="289.4" width="310" height="30" rx="10" transform="rotate(-45 330 289.4)" fill="white"/>
<rect x="330" y="399" width="129.6" height="36.6" rx="10" fill="white"/>
<path d="M180.412 220.814C180.412 218.275 181.193 216.078 182.756 214.223C184.416 212.367 186.369 211.439 188.615 211.439H307.561C310.1 211.439 312.004 212.27 313.273 213.93C314.641 215.492 315.324 217.445 315.324 219.789V235.756C315.324 238.002 314.641 239.955 313.273 241.615C312.004 243.178 310.1 243.959 307.561 243.959H217.18V316.762H289.982C292.521 316.762 294.426 317.592 295.695 319.252C297.062 320.912 297.746 322.865 297.746 325.111V340.932C297.746 343.178 297.062 345.131 295.695 346.791C294.426 348.354 292.521 349.135 289.982 349.135H217.033V426.625C217.033 429.164 216.203 431.361 214.543 433.217C212.98 435.072 211.076 436 208.83 436H188.469C186.223 436 184.318 435.072 182.756 433.217C181.193 431.361 180.412 429.164 180.412 426.625V220.814Z" fill="white"/>
</svg>
